<?xml version="1.0" encoding="UTF-8" standalone="no"?>
<svg width="501px" height="65px" viewBox="0 0 501 65" version="1.1" xmlns="http://www.w3.org/2000/svg" xmlns:xlink="http://www.w3.org/1999/xlink">
    <!-- Generator: Sketch 39.1 (31720) - http://www.bohemiancoding.com/sketch -->
    <title>LISA_EISNER_08.12 copy</title>
    <desc>Created with Sketch.</desc>
    <defs>
        <polygon id="path-1" points="0.06 64.941 500.53 64.941 500.53 0.52 0.06 0.52"></polygon>
    </defs>
    <g id="Page-1" stroke="none" stroke-width="1" fill="none" fill-rule="evenodd">
        <g id="LISA_EISNER_08.12-copy">
            <mask id="mask-2" fill="white">
                <use xlink:href="#path-1"></use>
            </mask>
            <g id="Clip-2"></g>
            <path d="M0,64.141 L36.23,64.141 L36.23,53.823 L11.374,53.823 L11.374,3.958 L0,3.958 L0,64.141 L0,64.141 Z M52.162,64.141 L63.115,64.141 L63.115,22.443 L52.162,22.443 L52.162,64.141 Z M50.477,7.654 C50.477,11.695 53.678,14.79 57.638,14.79 C61.598,14.79 64.8,11.695 64.8,7.654 C64.8,3.614 61.598,0.52 57.638,0.52 C53.678,0.52 50.477,3.614 50.477,7.654 L50.477,7.654 Z M79.957,59.411 C84.76,63.022 90.742,65 96.387,65 C104.981,65 112.649,60.1 112.649,52.104 C112.649,37.66 92.848,39.81 92.848,34.394 C92.848,32.243 95.376,31.04 98.409,31.04 C101.358,31.04 104.139,32.329 106.245,33.877 L111.385,25.795 C108.689,23.647 102.875,21.582 97.567,21.582 C89.478,21.582 81.895,26.569 81.895,34.565 C81.895,47.978 101.695,45.741 101.695,52.019 C101.695,54.081 99.42,55.542 96.471,55.542 C92.343,55.542 88.046,53.995 85.265,51.416 L79.957,59.411 L79.957,59.411 Z M159.283,49.524 C157.177,52.619 153.554,54.684 149.425,54.684 C143.275,54.684 138.641,49.868 138.641,43.334 C138.641,37.316 142.769,31.899 149.173,31.899 C153.385,31.899 157.008,33.963 159.283,37.059 L159.283,49.524 L159.283,49.524 Z M159.704,64.141 L170.236,64.141 L170.236,22.442 L159.704,22.442 L159.704,28.891 C159.536,25.709 155.492,21.582 147.74,21.582 C136.618,21.582 127.687,31.04 127.687,43.334 C127.687,49.008 129.71,54.167 132.911,57.95 C136.534,62.249 142.264,65 148.33,65 C155.66,65 159.704,60.873 159.704,57.692 L159.704,64.141 L159.704,64.141 Z M262.494,14.275 L262.494,3.958 L227.107,3.958 L227.107,64.141 L263.337,64.141 L263.337,53.823 L238.482,53.823 L238.482,37.059 L256.598,37.059 L256.598,26.741 L238.482,26.741 L238.482,14.275 L262.494,14.275 L262.494,14.275 Z M280.92,64.141 L291.873,64.141 L291.873,22.443 L280.92,22.443 L280.92,64.141 Z M279.234,7.654 C279.234,11.695 282.438,14.79 286.396,14.79 C290.357,14.79 293.559,11.695 293.559,7.654 C293.559,3.614 290.357,0.52 286.396,0.52 C282.438,0.52 279.234,3.614 279.234,7.654 L279.234,7.654 Z M308.716,59.411 C313.518,63.022 319.501,65 325.146,65 C333.74,65 341.407,60.1 341.407,52.104 C341.407,37.66 321.607,39.81 321.607,34.394 C321.607,32.243 324.135,31.04 327.168,31.04 C330.117,31.04 332.896,32.329 335.004,33.877 L340.143,25.795 C337.447,23.647 331.633,21.582 326.325,21.582 C318.236,21.582 310.654,26.569 310.654,34.565 C310.654,47.978 330.454,45.741 330.454,52.019 C330.454,54.081 328.18,55.542 325.23,55.542 C321.102,55.542 316.805,53.995 314.023,51.416 L308.716,59.411 L308.716,59.411 Z M370.146,22.442 L359.614,22.442 L359.614,64.141 L370.566,64.141 L370.566,37.059 C372.084,34.909 375.875,31.899 380.509,31.899 C383.037,31.899 385.229,32.759 386.66,34.222 C388.176,35.769 389.104,37.918 389.104,42.044 L389.104,64.141 L400.057,64.141 L400.057,42.904 C400.057,35.769 398.54,31.556 395.844,28.288 C392.475,24.162 387.334,21.582 381.689,21.582 C374.359,21.582 370.146,25.451 370.146,28.891 L370.146,22.442 L370.146,22.442 Z M449.143,51.158 C447.206,53.308 443.498,55.973 438.864,55.973 C433.051,55.973 428.417,51.933 427.827,46.085 L456.137,46.085 C456.305,45.141 456.389,44.022 456.389,42.904 C456.389,31.298 448.385,21.582 437.095,21.582 C424.962,21.582 417.211,31.728 417.211,43.334 C417.211,56.402 426.394,65 438.611,65 C444.931,65 451.418,62.335 455.378,57.521 L449.143,51.158 L449.143,51.158 Z M428.332,37.918 C428.838,34.135 432.545,30.61 437.095,30.61 C441.56,30.61 444.846,34.222 445.183,37.918 L428.332,37.918 L428.332,37.918 Z M496.823,21.582 C489.492,21.582 484.943,25.451 484.943,28.891 L484.943,22.442 L474.411,22.442 L474.411,64.141 L485.364,64.141 L485.364,37.918 C486.712,35.424 490.503,31.899 495.306,31.899 C496.907,31.899 498.508,32.071 499.266,32.329 L500.53,21.926 C499.35,21.754 498.423,21.582 496.823,21.582 L496.823,21.582 Z" id="Fill-1" fill="#FFFFFF" mask="url(#mask-2)"></path>
        </g>
    </g>
</svg>